<svg height="512pt" viewBox="-13 0 512 512.00044" width="512pt" xmlns="http://www.w3.org/2000/svg"><path d="m149.082031 173.320312c-.128906-8.480468.179688-13.679687.179688-13.679687s40.84375-30.882813 61.125-83.0625c0 0 37.710937 57.34375 126.101562 82.445313 0 0 .367188 5.535156.261719 14.511718 7.546875-3.789062 17.265625-5.648437 25.789062 2.199219 42.992188-138.597656-81.296874-173.644531-113.40625-175.621094-33.582031-2.066406-54.027343 24.800781-54.027343 24.800781-30.257813-23.25-63.765625 4.648438-75.648438 48.046876-7.273437 26.558593-2.160156 72.480468 2.902344 104.113281 8.679687-9.222657 18.828125-7.597657 26.722656-3.753907zm0 0" fill="#945b44"/><path d="m366.570312 180.324219c-9.355468-13.003907-21.050781-11.191407-29.820312-6.792969-.203125 17.621094-2.21875 48.507812-12.363281 76.867188 44.148437 14.8125 57.609375-48.621094 42.183593-70.074219zm0 0" fill="#ffbd86"/><path d="m149.082031 173.320312c-8.71875-4.242187-20.1875-5.785156-29.386719 7.007813-15.417968 21.433594-1.988281 84.796875 42.089844 70.105469-10.339844-28.613282-12.4375-59.753906-12.703125-77.113282zm0 0" fill="#ffbd86"/><path d="m329.566406 233.109375c-1.433594 5.777344-3.140625 11.585937-5.179687 17.289063 36.398437 12.210937 51.9375-28.761719 47.621093-55.546876-3.175781 21.875-17.191406 43.527344-42.441406 38.257813zm0 0" fill="#ffa664"/><path d="m114.253906 194.855469c-4.308594 26.761719 11.195313 67.6875 47.53125 55.574219-2.0625-5.703126-3.792968-11.511719-5.25-17.289063-25.148437 5.148437-39.109375-16.457031-42.28125-38.285156zm0 0" fill="#ffa664"/><path d="m243.390625 314.300781c-21.582031.074219-38.25-6.632812-51.121094-17.28125v44.558594c0 28.089844 22.769531 50.863281 50.863281 50.863281 28.089844 0 50.863282-22.773437 50.863282-50.863281v-44.566406c-12.75 10.542969-29.25 17.222656-50.605469 17.289062zm0 0" fill="#ffbd86"/><path d="m336.488281 159.023438s10.242188 154.9375-93.101562 155.28125c-103.34375.339843-94.125-154.660157-94.125-154.660157s40.84375-30.886719 61.121093-83.066406c.003907 0 37.714844 57.34375 126.105469 82.445313zm0 0" fill="#fed2a4"/><path d="m243.390625 295.605469c-80.5.269531-92.703125-93.71875-94.164063-135.28125-.503906 10.898437-5.253906 154.308593 94.164063 153.976562 95.964844-.316406 93.984375-133.925781 93.210937-153-1.4375 42.335938-13.726562 134.042969-93.210937 134.304688zm0 0" fill="#ffbd86"/><path d="m192.269531 297.019531v18.671875c12.871094 10.65625 29.53125 17.378906 51.121094 17.308594 21.359375-.074219 37.855469-6.757812 50.605469-17.308594v-18.679687c-12.75 10.542969-29.25 17.222656-50.605469 17.292969-21.582031.070312-38.25-6.636719-51.121094-17.285157zm0 0" fill="#ffa664"/><path d="m455.253906 434.035156c-27.96875-22.613281-161.257812-92.457031-161.257812-92.457031 0 28.09375-22.773438 50.867187-50.863282 50.867187-28.09375 0-50.863281-22.773437-50.863281-50.867187 0 0-133.289062 69.84375-161.261719 92.457031-22.46875 18.167969-29.191406 57.449219-30.9687495 72.207032-.3710935 3.066406 2.0273435 5.757812 5.1171875 5.757812h475.953125c3.089844 0 5.484375-2.691406 5.117187-5.757812-1.777343-14.757813-8.503906-54.039063-30.972656-72.207032zm0 0" fill="#8bcaff"/><path d="m2.066406 493.304688c-.996094 5.1875-1.632812 9.664062-2.0273435 12.9375-.3710935 3.066406 2.0273435 5.757812 5.1171875 5.757812h475.953125c3.089844 0 5.484375-2.691406 5.117187-5.757812-.394531-3.273438-1.03125-7.75-2.03125-12.9375zm0 0" fill="#60b8ff"/><path d="m207.898438 173.5625c0-8.875-5.621094-15.828125-12.792969-15.828125s-12.789063 6.953125-12.789063 15.828125 5.617188 15.824219 12.789063 15.824219 12.792969-6.953125 12.792969-15.824219zm0 0" fill="#433f43"/><path d="m291.15625 189.386719c7.171875 0 12.789062-6.953125 12.789062-15.828125s-5.617187-15.824219-12.789062-15.824219-12.789062 6.949219-12.789062 15.824219 5.617187 15.828125 12.789062 15.828125zm0 0" fill="#433f43"/><path d="m251.359375 226.8125c.792969 0 1.601563-.019531 2.429687-.050781 4.296876-.179688 7.636719-3.808594 7.457032-8.109375-.179688-4.300782-3.792969-7.625-8.105469-7.457032-3.804687.160157-10.507813-.066406-12.578125-3.359374-2.667969-4.242188.402344-14.332032 3.324219-19.816407 2.03125-3.785156.613281-8.503906-3.171875-10.539062-3.785156-2.039063-8.511719-.621094-10.550782 3.164062-1.183593 2.199219-11.316406 21.859375-2.8125 35.449219 4.457032 7.117188 12.523438 10.71875 24.007813 10.71875zm0 0" fill="#ffa664"/><path d="m203.066406 235.050781c-3.597656 2.359375-4.601562 7.1875-2.242187 10.785157.625.953124 15.605469 23.324218 42.308593 23.324218 26.699219 0 41.683594-22.371094 42.308594-23.324218 2.351563-3.585938 1.351563-8.378907-2.222656-10.75-3.570312-2.371094-8.398438-1.386719-10.785156 2.175781-.109375.164062-11.136719 16.320312-29.300782 16.320312-18.160156 0-29.191406-16.15625-29.28125-16.289062-2.359374-3.597657-7.1875-4.601563-10.785156-2.242188zm0 0" fill="#ff646f"/></svg>